<?xml version="1.0" encoding="UTF-8"?>
<svg width="8px" height="8px" viewBox="0 0 8 8" version="1.1" xmlns="http://www.w3.org/2000/svg" xmlns:xlink="http://www.w3.org/1999/xlink">
    <title>triangle-down</title>
    <g id="Page-1" stroke="none" stroke-width="1" fill="none" fill-rule="evenodd">
        <g id="triangle-down" transform="translate(0.000977, 0.666992)" fill="#4E64DD" fill-rule="nonzero">
            <path d="M7.33227344,4.4408921e-16 L0.665603439,4.4408921e-16 C0.546770439,0.000426 0.430201439,0.032545 0.327919439,0.093044 C0.225637439,0.153544 0.141346439,0.240232 0.0837391385,0.344168 C0.0261317385,0.448108 -0.00270612145,0.565528 0.000199798546,0.684328 C0.00310571855,0.803128 0.0376502385,0.919008 0.100270439,1.019998 L3.43360344,6.353338 C3.49353344,6.449218 3.57686344,6.528288 3.67575344,6.583098 C3.77465344,6.637908 3.88586344,6.666668 3.99893344,6.666668 C4.11200344,6.666668 4.22322344,6.637908 4.32211344,6.583098 C4.42101344,6.528288 4.50434344,6.449218 4.56427344,6.353338 L7.89760344,1.019998 C7.96067344,0.919088 7.99558344,0.803128 7.99871344,0.684168 C8.00183344,0.565208 7.97305344,0.447578 7.91536344,0.343488 C7.85767344,0.239402 7.77318344,0.152656 7.67064344,0.092255 C7.56810344,0.031854 7.45127344,4.4408921e-16 7.33227344,4.4408921e-16 Z" id="Path"></path>
        </g>
    </g>
</svg>