<?xml version="1.0" encoding="UTF-8"?>
<svg width="10px" height="12px" viewBox="0 0 10 12" version="1.1" xmlns="http://www.w3.org/2000/svg" xmlns:xlink="http://www.w3.org/1999/xlink">
    <title>triangle-right</title>
    <g id="Page-1" stroke="none" stroke-width="1" fill="none" fill-rule="evenodd">
        <g id="triangle-right" transform="translate(-0.000244, 0.000126)" fill="#ADAEB2" fill-rule="nonzero">
            <path d="M-3.33066907e-16,1 L-3.33066907e-16,11 C0.000639,11.178249 0.0488175,11.353104 0.139566,11.506524 C0.2303145,11.659959 0.360348,11.786394 0.516249,11.872794 C0.672159,11.959209 0.848304,12.002469 1.026489,11.998104 C1.204689,11.993754 1.378509,11.941929 1.529994,11.847999 L9.530004,6.84800395 C9.673824,6.75810895 9.792429,6.63311395 9.874644,6.48477895 C9.956874,6.33642895 10,6.16961395 10,6 C10,5.83040395 9.956874,5.66357395 9.874644,5.51523895 C9.792429,5.36688895 9.673824,5.24189395 9.530004,5.15199895 L1.529994,0.152003955 C1.378629,0.0573962546 1.204689,0.00503017457 1.026249,0.000344548072 C0.847809,-0.00434037043 0.671364,0.0388246046 0.515229,0.125358405 C0.359103,0.211891455 0.2289825,0.338641455 0.138381,0.492445455 C0.0477795,0.646247955 -3.33066907e-16,0.821498955 -3.33066907e-16,1 Z" id="Path"></path>
        </g>
    </g>
</svg>